<svg width="473" height="473" viewBox="0 0 473 473" fill="none" xmlns="http://www.w3.org/2000/svg">
<path d="M473 0.363007H0.363037V473H473V0.363007Z" fill="white"/>
<path d="M251.061 103.017V110.067H298.153V244.898H251.061V251.949H306.661V103.017H251.061Z" fill="#C0AFAA"/>
<path d="M213.795 163.177H248.226V159.313H222.302V103.017H166.702V110.067H213.795V163.177Z" fill="#C0AFAA"/>
<path d="M213.795 184.023V244.898H166.702V251.949H222.302V187.421H248.226V184.023H213.795Z" fill="#C0AFAA"/>
<path d="M194.889 172.63H248.226V166.013H210.959V112.904C201.181 112.904 176.771 112.904 166.702 112.904V119.521H194.889V172.63Z" fill="#38BDF8"/>
<path d="M194.889 174.569V235.446H166.702V242.063H183.862H210.959V181.187H248.226V174.569H194.889Z" fill="#38BDF8"/>
<path d="M251.061 112.903V119.52H279.248V235.446H251.061V242.062C260.838 242.062 285.249 242.062 295.318 242.062V112.903C285.541 112.903 261.131 112.903 251.061 112.903Z" fill="#38BDF8"/>
</svg>
